<?xml version="1.0" encoding="UTF-8" standalone="no"?>
<!-- Generator: Adobe Illustrator 14.0.0, SVG Export Plug-In . SVG Version: 6.00 Build 43363)  -->

<svg
   xmlns:dc="http://purl.org/dc/elements/1.1/"
   xmlns:cc="http://creativecommons.org/ns#"
   xmlns:rdf="http://www.w3.org/1999/02/22-rdf-syntax-ns#"
   xmlns:svg="http://www.w3.org/2000/svg"
   xmlns="http://www.w3.org/2000/svg"
   xmlns:sodipodi="http://sodipodi.sourceforge.net/DTD/sodipodi-0.dtd"
   xmlns:inkscape="http://www.inkscape.org/namespaces/inkscape"
   version="1.0"
   id="Layer_1"
   x="0px"
   y="0px"
   width="48"
   height="48"
   viewBox="0 0 48.000001 48"
   enable-background="new 0 0 84.06 100"
   xml:space="preserve"
   inkscape:version="0.48.1 "
   sodipodi:docname="noun_project_160.svg"><metadata
   id="metadata13"><rdf:RDF><cc:Work
       rdf:about=""><dc:format>image/svg+xml</dc:format><dc:type
         rdf:resource="http://purl.org/dc/dcmitype/StillImage" /><dc:title></dc:title></cc:Work></rdf:RDF></metadata><defs
   id="defs11" /><sodipodi:namedview
   pagecolor="#ffffff"
   bordercolor="#666666"
   borderopacity="1"
   objecttolerance="10"
   gridtolerance="10"
   guidetolerance="10"
   inkscape:pageopacity="0"
   inkscape:pageshadow="2"
   inkscape:window-width="640"
   inkscape:window-height="1041"
   id="namedview9"
   showgrid="false"
   inkscape:zoom="3.5656561"
   inkscape:cx="22.112274"
   inkscape:cy="38.149747"
   inkscape:window-x="0"
   inkscape:window-y="0"
   inkscape:window-maximized="0"
   inkscape:current-layer="Layer_1" />
<path
   clip-rule="evenodd"
   d="m 40.101004,22.32256 v 4.25181 c 0,2.082658 -0.717525,4.137415 -2.014136,6.023964 -0.431812,0.628982 -0.93137,1.240028 -1.507511,1.814005 -1.065682,1.060263 -2.232104,2.080665 -3.025622,3.251338 -0.797643,1.179441 -1.25243,2.464113 -1.25243,3.763133 v 3.27645 h -7.794986 v -3.27645 c 0,-1.429361 0.303978,-2.859917 0.893666,-4.233076 0.535495,-1.242421 1.297202,-2.465309 2.380558,-3.535935 0.536673,-0.529732 1.154639,-1.021997 1.753166,-1.516255 0.534904,-0.440447 1.039764,-0.884881 1.405595,-1.398669 0.943152,-1.311776 1.27187,-2.772625 1.286596,-4.22072 l 0.04301,-4.199993 -4.524296,1.004857 c -0.145506,0.04065 -0.270987,0.06816 -0.428277,0.07573 -0.564359,0.03069 -1.128129,-0.161431 -1.43505,-0.483096 -0.260972,-0.280213 -0.319292,-0.64134 -0.16495,-0.952642 0.08071,-0.163026 0.211489,-0.247527 0.349927,-0.38305 l 10.057723,-9.814599 10.21737,9.842102 c 0.256848,0.247528 0.407658,0.334421 0.42651,0.626591 0.03004,0.415735 -0.170839,0.762512 -0.696318,1.001271 -0.334021,0.152263 -0.732254,0.19292 -1.122828,0.152263 -0.11251,-0.01236 -0.177319,-0.03906 -0.282768,-0.06338 l -4.564942,-1.005656"
   id="path3"
   inkscape:connector-curvature="0"
   style="fill-rule:evenodd" />
<path
   clip-rule="evenodd"
   d="m 23.13476,26.932229 4.563766,-0.998878 c 0.199115,-0.04863 0.301619,-0.08052 0.508393,-0.08052 0.581443,0 1.027393,0.127551 1.366126,0.456791 0.302208,0.29177 0.351105,0.681597 0.160825,1.010437 -0.08307,0.144291 -0.19028,0.207269 -0.316936,0.326848 L 19.158328,37.48941 9.1330062,27.673614 c -0.096611,-0.09566 -0.320472,-0.279415 -0.385862,-0.421315 -0.048896,-0.103241 -0.079524,-0.21245 -0.082463,-0.32047 -0.00418,-0.442439 0.421797,-0.815924 1.0002934,-0.991704 0.2497793,-0.07773 0.4954344,-0.103241 0.7599414,-0.07055 0.122525,0.01474 0.241531,0.01993 0.351103,0.06338 l 4.559643,0.998878 -0.03534,-4.195608 c -0.0071,-0.982537 -0.169074,-1.965471 -0.574375,-2.908945 -0.316348,-0.741387 -0.77349,-1.4752 -1.469218,-2.09342 C 12.641115,17.185389 11.974253,16.66084 11.348627,16.116757 10.819022,15.653589 10.352455,15.154948 9.9589343,14.636376 8.3707175,12.55053 7.5748425,10.194834 7.5748425,7.8550826 V 4.5587047 h 7.7996985 v 3.2963789 c 0,1.8108163 0.874814,3.6136604 2.365831,5.1127754 0.583208,0.585536 1.195873,1.158317 1.780262,1.743056 0.625037,0.625794 1.173489,1.287461 1.637111,1.973841 1.288365,1.890136 1.977025,3.946088 1.977025,6.026754 v 4.220719"
   id="path5"
   inkscape:connector-curvature="0"
   style="fill-rule:evenodd" />

<text
   xml:space="preserve"
   style="font-size:3.72404385px;font-style:normal;font-variant:normal;font-weight:bold;font-stretch:normal;line-height:125%;letter-spacing:0px;word-spacing:0px;fill:#000000;fill-opacity:1;stroke:none;font-family:Stencil Std;-inkscape-font-specification:Stencil Std Bold"
   x="2.2783134"
   y="48.095688"
   id="text2990"
   sodipodi:linespacing="125%"
   transform="scale(1.2157075,0.82256629)"><tspan
     sodipodi:role="line"
     id="tspan2992"
     x="2.2783134"
     y="48.095688">0101110</tspan><tspan
     sodipodi:role="line"
     x="2.2783134"
     y="52.750744"
     id="tspan2994">1110110</tspan><tspan
     sodipodi:role="line"
     x="2.2783134"
     y="57.405796"
     id="tspan2996">0101110</tspan></text>
<text
   xml:space="preserve"
   style="font-size:3.72404385px;font-style:normal;font-variant:normal;font-weight:bold;font-stretch:normal;line-height:125%;letter-spacing:0px;word-spacing:0px;fill:#000000;fill-opacity:1;stroke:none;font-family:Stencil Std;-inkscape-font-specification:Stencil Std Bold"
   x="15.419806"
   y="4.1713696"
   id="text2990-3"
   sodipodi:linespacing="125%"
   transform="scale(1.2157075,0.82256629)"><tspan
     sodipodi:role="line"
     id="tspan2992-7"
     x="15.419806"
     y="4.1713696">0101110</tspan><tspan
     sodipodi:role="line"
     x="15.419806"
     y="8.8264236"
     id="tspan2994-9">1110110</tspan><tspan
     sodipodi:role="line"
     x="15.419806"
     y="13.481479"
     id="tspan2996-1">0101110</tspan></text>
</svg>