<?xml version="1.0" encoding="UTF-8" standalone="no"?>
<!-- Created with Inkscape (http://www.inkscape.org/) -->

<svg
   xmlns:dc="http://purl.org/dc/elements/1.1/"
   xmlns:cc="http://creativecommons.org/ns#"
   xmlns:rdf="http://www.w3.org/1999/02/22-rdf-syntax-ns#"
   xmlns:svg="http://www.w3.org/2000/svg"
   xmlns="http://www.w3.org/2000/svg"
   xmlns:sodipodi="http://sodipodi.sourceforge.net/DTD/sodipodi-0.dtd"
   xmlns:inkscape="http://www.inkscape.org/namespaces/inkscape"
   width="20"
   height="20"
   id="svg2"
   version="1.1"
   inkscape:version="0.48.1 "
   sodipodi:docname="fix.svg">
  <defs
     id="defs4" />
  <sodipodi:namedview
     id="base"
     pagecolor="#ffffff"
     bordercolor="#666666"
     borderopacity="1.0"
     inkscape:pageopacity="0.0"
     inkscape:pageshadow="2"
     inkscape:zoom="11.275669"
     inkscape:cx="4.5825047"
     inkscape:cy="15.11224"
     inkscape:document-units="px"
     inkscape:current-layer="g3986"
     showgrid="false"
     showguides="true"
     inkscape:guide-bbox="true"
     inkscape:window-width="1199"
     inkscape:window-height="753"
     inkscape:window-x="175"
     inkscape:window-y="158"
     inkscape:window-maximized="0" />
  <metadata
     id="metadata7">
    <rdf:RDF>
      <cc:Work
         rdf:about="">
        <dc:format>image/svg+xml</dc:format>
        <dc:type
           rdf:resource="http://purl.org/dc/dcmitype/StillImage" />
        <dc:title></dc:title>
      </cc:Work>
    </rdf:RDF>
  </metadata>
  <g
     inkscape:label="Layer 1"
     inkscape:groupmode="layer"
     id="layer1"
     transform="translate(0,-1032.3622)">
    <g
       id="g3986"
       transform="translate(1.4322202,1.076913)">
      <path
         inkscape:connector-curvature="0"
         d="m 8.6906961,1036.0395 c -0.5463646,0 -0.9943201,-0.4484 -0.9943201,-0.9984 0,-0.5549 0.4483081,-1.0003 0.9943201,-1.0003 0.5544767,0 0.9997867,0.4454 0.9997867,1.0003 -1.759e-4,0.55 -0.4454859,0.9984 -0.9997867,0.9984 z m 8.0691929,8.7463 -0.532257,-3.3171 c -0.06189,-0.31 -0.332438,-0.5461 -0.655177,-0.5461 -0.196642,0 -0.370005,0.084 -0.497161,0.2181 l -2.452115,2.3003 c -0.04056,0.034 -0.07936,0.073 -0.114457,0.1233 -0.230504,0.3142 -0.164898,0.7594 0.149552,0.994 0.05997,0.045 0.125746,0.073 0.191352,0.1001 l 0.615851,0.2049 c -0.59363,1.6762 -2.043312,2.9511 -3.8238454,3.3044 l 0.00389,-10.8887 c 0.8728064,-0.3714 1.4759594,-1.2357 1.4759594,-2.2381 0,-1.3448 -1.08638,-2.4317 -2.4313043,-2.4317 -1.3391045,0 -2.4298936,1.0867 -2.4298936,2.432 0,1.0024 0.6244921,1.8665 1.4930671,2.2381 l 0.00388,10.9054 c -1.8191576,-0.327 -3.3247464,-1.6143 -3.9324844,-3.3212 l 0.6200832,-0.205 c 0.065959,-0.026 0.1313891,-0.055 0.1929383,-0.1 0.3142742,-0.2344 0.384113,-0.68 0.1479663,-0.9941 -0.035097,-0.049 -0.069838,-0.089 -0.1132239,-0.1232 l -2.4533498,-2.3003 c -0.1215119,-0.1334 -0.3001655,-0.218 -0.4931038,-0.218 -0.3267958,0 -0.6017416,0.2358 -0.6595878,0.5458 l -0.53207943,3.3171 c -0.0123406,0.052 -0.0165779,0.1087 -0.0165779,0.1663 0,0.3926 0.31815427,0.7109 0.71073253,0.7109 0.073895,0 0.1440869,-0.015 0.2096924,-0.031 l 0.5766985,-0.1871 c 0.9163689,2.7847 3.5388483,4.8001 6.6323863,4.8001 3.0931853,0 5.7174273,-2.0162 6.6334433,-4.8047 l 0.575464,0.1911 c 0.06579,0.021 0.135796,0.031 0.209516,0.031 0.393988,0 0.712144,-0.3182 0.712144,-0.7109 -1.77e-4,-0.057 -0.0057,-0.1146 -0.01798,-0.1658 z"
         id="path3" />
    </g>
  </g>
</svg>
