<?xml version="1.0" encoding="UTF-8" standalone="no"?>
<!-- Generator: Adobe Illustrator 15.1.0, SVG Export Plug-In . SVG Version: 6.00 Build 0)  -->

<svg
   xmlns:dc="http://purl.org/dc/elements/1.1/"
   xmlns:cc="http://creativecommons.org/ns#"
   xmlns:rdf="http://www.w3.org/1999/02/22-rdf-syntax-ns#"
   xmlns:svg="http://www.w3.org/2000/svg"
   xmlns="http://www.w3.org/2000/svg"
   xmlns:sodipodi="http://sodipodi.sourceforge.net/DTD/sodipodi-0.dtd"
   xmlns:inkscape="http://www.inkscape.org/namespaces/inkscape"
   version="1.1"
   id="Layer_1"
   x="0px"
   y="0px"
   width="34"
   height="34"
   viewBox="0 0 34 34"
   enable-background="new 0 0 100 59"
   xml:space="preserve"
   inkscape:version="0.48.1 "
   sodipodi:docname="noun_project_444.svg"><metadata
   id="metadata15"><rdf:RDF><cc:Work
       rdf:about=""><dc:format>image/svg+xml</dc:format><dc:type
         rdf:resource="http://purl.org/dc/dcmitype/StillImage" /><dc:title></dc:title></cc:Work></rdf:RDF></metadata><defs
   id="defs13" /><sodipodi:namedview
   pagecolor="#ffffff"
   bordercolor="#666666"
   borderopacity="1"
   objecttolerance="10"
   gridtolerance="10"
   guidetolerance="10"
   inkscape:pageopacity="0"
   inkscape:pageshadow="2"
   inkscape:window-width="1354"
   inkscape:window-height="946"
   id="namedview11"
   showgrid="false"
   inkscape:zoom="4.8"
   inkscape:cx="50"
   inkscape:cy="29.5"
   inkscape:window-x="0"
   inkscape:window-y="0"
   inkscape:window-maximized="0"
   inkscape:current-layer="Layer_1" />
<path
   d="m 33.04596,13.164583 -10e-4,3.35e-4 C 32.708872,9.7751976 29.849781,7.1270836 26.370839,7.1270836 c -1.293031,0 -2.496842,0.372312 -3.521204,1.00625 H 11.108704 c -1.024362,-0.633938 -2.2281728,-1.00625 -3.521204,-1.00625 -3.4789417,0 -6.3380334,2.648114 -6.67412084,6.0378344 l -0.001006,-3.35e-4 c -0.11672525,1.400364 -0.70403983,10.965106 -0.70403983,11.06875 0,1.481871 1.20112707,2.683333 2.68333327,2.683333 6.1639521,0 8.7017144,-5.261346 9.6150534,-8.05 h 8.944892 c 0.91334,2.788654 3.451102,8.05 9.615054,8.05 1.482207,0 2.683334,-1.201462 2.683334,-2.683333 0,-0.103644 -0.587315,-9.668386 -0.70404,-11.06875 z M 7.5875,17.860416 c -2.2234771,0 -4.025,-1.802194 -4.025,-4.025 0,-2.222806 1.8015229,-4.0249994 4.025,-4.0249994 2.223477,0 4.025,1.8021934 4.025,4.0249994 0,2.222806 -1.8015229,4.025 -4.025,4.025 z m 18.783333,0 c -2.223477,0 -4.025,-1.802194 -4.025,-4.025 0,-2.222806 1.801523,-4.0249994 4.025,-4.0249994 2.223477,0 4.025,1.8021934 4.025,4.0249994 0,2.222806 -1.801523,4.025 -4.025,4.025 z"
   id="path3"
   inkscape:connector-curvature="0" />
<polygon
   points="25,23 31,23 31,17 25,17 25,11 19,11 19,17 13,17 13,23 19,23 19,29 25,29 "
   id="polygon5"
   transform="matrix(0.33541667,0,0,0.33541667,0.20833333,7.1270836)" />
<path
   d="m 26.370833,12.493749 c 0,0.741271 -0.600396,1.341667 -1.341667,1.341667 -0.739593,0 -1.341666,-0.600396 -1.341666,-1.341667 0,-0.74127 0.602073,-1.341666 1.341666,-1.341666 0.741271,0 1.341667,0.600396 1.341667,1.341666 z"
   id="path7"
   inkscape:connector-curvature="0" />
<path
   d="m 29.054166,15.177083 c 0,0.741271 -0.600396,1.341666 -1.341666,1.341666 -0.739594,0 -1.341667,-0.600395 -1.341667,-1.341666 0,-0.741271 0.602073,-1.341667 1.341667,-1.341667 0.74127,0 1.341666,0.600396 1.341666,1.341667 z"
   id="path9"
   inkscape:connector-curvature="0" />
</svg>