<?xml version="1.0" encoding="UTF-8" standalone="no"?>
<svg
   xmlns:dc="http://purl.org/dc/elements/1.1/"
   xmlns:cc="http://creativecommons.org/ns#"
   xmlns:rdf="http://www.w3.org/1999/02/22-rdf-syntax-ns#"
   xmlns:svg="http://www.w3.org/2000/svg"
   xmlns="http://www.w3.org/2000/svg"
   xmlns:sodipodi="http://sodipodi.sourceforge.net/DTD/sodipodi-0.dtd"
   xmlns:inkscape="http://www.inkscape.org/namespaces/inkscape"
   version="1.1"
   id="Layer_1"
   x="0px"
   y="0px"
   width="40"
   height="40"
   viewBox="0 0 40 40"
   enable-background="new 0 0 100 100"
   xml:space="preserve"
   inkscape:version="0.48.1 "
   sodipodi:docname="noun_project_1908.svg"><metadata
   id="metadata17"><rdf:RDF><cc:Work
       rdf:about=""><dc:format>image/svg+xml</dc:format><dc:type
         rdf:resource="http://purl.org/dc/dcmitype/StillImage" /><dc:title></dc:title></cc:Work></rdf:RDF></metadata><defs
   id="defs15" /><sodipodi:namedview
   pagecolor="#ffffff"
   bordercolor="#666666"
   borderopacity="1"
   objecttolerance="10"
   gridtolerance="10"
   guidetolerance="10"
   inkscape:pageopacity="0"
   inkscape:pageshadow="2"
   inkscape:window-width="1187"
   inkscape:window-height="895"
   id="namedview13"
   showgrid="false"
   inkscape:zoom="2.91"
   inkscape:cx="50"
   inkscape:cy="50"
   inkscape:window-x="0"
   inkscape:window-y="0"
   inkscape:window-maximized="0"
   inkscape:current-layer="Layer_1" />
<path
   d="m 17.510699,12.989789 h 4.376858 V 12.989 l 0.0012,7.89e-4 c 0.172771,0 0.312013,-0.140426 0.312013,-0.312802 l 0,0 C 22.046127,10.157218 20.030075,8.141954 17.510699,7.9869338 l -7.88e-4,3.944e-4 c -0.171588,0.00118 -0.311224,0.140031 -0.311224,0.3124073 v 4.3772515 c 0,0.172376 0.139636,0.312802 0.312012,0.312802 z"
   id="path3"
   inkscape:connector-curvature="0"
   style="fill:#000000" />
<path
   d="M 33.339334,18.489656 29.633048,14.907228 C 28.980622,14.276497 27.848934,13.818536 26.941296,13.818536 H 26.421012 V 7.9234267 c 0,-0.922627 -0.480839,-2.05747 -1.14431,-2.6988516 L 21.57081,1.6429363 C 20.918384,1.012205 19.785908,0.5546388 18.878665,0.5546388 H 9.5155188 c -1.2906524,0 -2.3410824,1.0500355 -2.3410824,2.3406877 V 24.395415 c 0,1.290258 1.050036,2.340688 2.3410824,2.340688 H 15.237069 V 37.659312 C 15.237069,38.949964 16.287104,40 17.578151,40 h 14.564805 c 1.290652,0 2.341082,-1.049641 2.341082,-2.340688 V 21.187718 c -3.94e-4,-0.922232 -0.481233,-2.05747 -1.144704,-2.698062 z m -4.967749,-2.918563 c 0.136087,0.08363 0.258367,0.175532 0.358164,0.27099 l 3.705103,3.582033 c 0.250872,0.241406 0.471766,0.631126 0.607853,1.026763 H 28.7617 c -0.214977,0 -0.390115,-0.174743 -0.390115,-0.390115 V 15.571093 z M 20.309348,2.3071962 c 0.135692,0.08323 0.258367,0.1747429 0.357769,0.2705952 l 3.705892,3.5824277 c 0.250084,0.2421945 0.471372,0.6303369 0.607459,1.0259738 h -4.281006 c -0.215766,0 -0.390114,-0.1747429 -0.390114,-0.3897201 V 2.3071962 z M 9.5155188,25.435589 c -0.5727464,0 -1.0401744,-0.468216 -1.0401744,-1.040174 V 2.8953265 c 0,-0.5723522 0.467822,-1.0401741 1.0401744,-1.0401741 H 18.87827 c 0.04142,0 0.08678,0.00513 0.130564,0.00828 v 4.9330369 c 0,0.9324883 0.757746,1.6906281 1.690628,1.6906281 h 4.421037 V 13.81893 h -7.542348 c -0.298601,0 -0.583397,0.05838 -0.846103,0.160543 L 16.402285,13.64971 v -7.89e-4 c -0.05444,-0.05601 -0.08757,-0.132142 -0.08757,-0.216555 h -7.88e-4 V 8.8709043 C 16.313138,8.6985281 16.174291,8.5600749 16.00152,8.5600749 v -0.00118 c -2.622328,0.1609371 -4.699915,2.3395041 -4.699915,5.0024601 0,2.397489 1.6855,4.398158 3.935464,4.891225 v 6.983012 H 9.5155188 z M 33.18313,37.659312 c 0,0.571958 -0.468611,1.040569 -1.040568,1.040569 H 17.578151 c -0.572352,0 -1.040174,-0.468611 -1.040174,-1.040569 V 16.159618 c 0,-0.572352 0.468216,-1.040174 1.040174,-1.040174 h 9.363145 c 0.04102,0 0.08639,0.0051 0.13017,0.0083 v 4.932643 c 0,0.932488 0.757745,1.690628 1.690234,1.690628 h 4.42143 v 15.908314 z"
   id="path5"
   inkscape:connector-curvature="0"
   style="fill:#000000" />
<path
   d="m 22.386146,35.860209 c 0,0.345936 -0.283218,0.628759 -0.628365,0.628759 h -1.730073 c -0.345147,0 -0.628759,-0.282823 -0.628759,-0.628759 v -6.131781 c 0,-0.345147 0.283612,-0.628759 0.628759,-0.628759 h 1.730073 c 0.345147,0 0.628365,0.283612 0.628365,0.628759 v 6.131781 z"
   id="path7"
   inkscape:connector-curvature="0"
   style="fill:#000000" />
<path
   d="m 26.159489,35.860209 c 0,0.345936 -0.282823,0.628759 -0.629153,0.628759 h -1.72889 c -0.345936,0 -0.629154,-0.282823 -0.629154,-0.628759 v -9.275576 c 0,-0.346331 0.283218,-0.629154 0.629154,-0.629154 h 1.72889 c 0.34633,0 0.629153,0.282823 0.629153,0.629154 v 9.275576 z"
   id="path9"
   inkscape:connector-curvature="0"
   style="fill:#000000" />
<path
   d="m 29.932438,35.860209 c 0,0.345936 -0.283218,0.628759 -0.628364,0.628759 h -1.72968 c -0.34633,0 -0.629548,-0.282823 -0.629548,-0.628759 v -7.703284 c 0,-0.345936 0.283218,-0.629154 0.629548,-0.629154 h 1.72968 c 0.345146,0 0.628364,0.283218 0.628364,0.629154 v 7.703284 z"
   id="path11"
   inkscape:connector-curvature="0"
   style="fill:#000000" />
</svg>