<?xml version="1.0" encoding="UTF-8" standalone="no"?>
<!-- Generator: Adobe Illustrator 14.0.0, SVG Export Plug-In . SVG Version: 6.00 Build 43363)  -->

<svg
   xmlns:dc="http://purl.org/dc/elements/1.1/"
   xmlns:cc="http://creativecommons.org/ns#"
   xmlns:rdf="http://www.w3.org/1999/02/22-rdf-syntax-ns#"
   xmlns:svg="http://www.w3.org/2000/svg"
   xmlns="http://www.w3.org/2000/svg"
   xmlns:sodipodi="http://sodipodi.sourceforge.net/DTD/sodipodi-0.dtd"
   xmlns:inkscape="http://www.inkscape.org/namespaces/inkscape"
   version="1.0"
   id="Layer_1"
   x="0px"
   y="0px"
   width="4.1305933"
   height="15.999999"
   viewBox="0 0 4.1305934 15.999999"
   enable-background="new 0 0 25.814 100"
   xml:space="preserve"
   inkscape:version="0.48.1 "
   sodipodi:docname="noun_project_443.svg"><metadata
   id="metadata11"><rdf:RDF><cc:Work
       rdf:about=""><dc:format>image/svg+xml</dc:format><dc:type
         rdf:resource="http://purl.org/dc/dcmitype/StillImage" /><dc:title></dc:title></cc:Work></rdf:RDF></metadata><defs
   id="defs9" /><sodipodi:namedview
   pagecolor="#ffffff"
   bordercolor="#666666"
   borderopacity="1"
   objecttolerance="10"
   gridtolerance="10"
   guidetolerance="10"
   inkscape:pageopacity="0"
   inkscape:pageshadow="2"
   inkscape:window-width="728"
   inkscape:window-height="480"
   id="namedview7"
   showgrid="false"
   fit-margin-top="0"
   fit-margin-left="0"
   fit-margin-right="0"
   fit-margin-bottom="0"
   inkscape:zoom="2.91"
   inkscape:cx="2.065317"
   inkscape:cy="8.0004997"
   inkscape:window-x="0"
   inkscape:window-y="0"
   inkscape:window-maximized="0"
   inkscape:current-layer="Layer_1" />
<ellipse
   cx="12.907"
   cy="7.7519999"
   rx="6.072"
   ry="7.7509999"
   id="ellipse3"
   sodipodi:cx="12.907"
   sodipodi:cy="7.7519999"
   sodipodi:rx="6.072"
   sodipodi:ry="7.7509999"
   transform="matrix(0.16000161,0,0,0.16000161,1.5906573e-4,-1.61586e-4)" />
<path
   d="m 4.0603601,2.8942674 h -1.343854 c -0.217442,0.136321 -0.651046,1.661296 -0.651046,1.661296 0,0 -0.433765,-1.524975 -0.651047,-1.661296 H 0.07024007 c -0.382404,0.604806 0.928649,2.468185 0.770088,3.084031 -1.142092,4.4344436 -0.211683,5.5286946 0.54272503,5.8314176 l 0.279203,4.190282 h 0.403044 0.403364 l 0.278883,-4.190122 c 0.754567,-0.302723 1.684497,-1.396814 0.542885,-5.8314176 -0.158881,-0.615846 1.152332,-2.479225 0.769928,-3.084191 z"
   id="path5"
   inkscape:connector-curvature="0" />
</svg>