<?xml version="1.0" encoding="UTF-8" standalone="no"?>
<svg
   xmlns:dc="http://purl.org/dc/elements/1.1/"
   xmlns:cc="http://creativecommons.org/ns#"
   xmlns:rdf="http://www.w3.org/1999/02/22-rdf-syntax-ns#"
   xmlns:svg="http://www.w3.org/2000/svg"
   xmlns="http://www.w3.org/2000/svg"
   xmlns:sodipodi="http://sodipodi.sourceforge.net/DTD/sodipodi-0.dtd"
   xmlns:inkscape="http://www.inkscape.org/namespaces/inkscape"
   version="1.1"
   id="Layer_1"
   x="0px"
   y="0px"
   width="40"
   height="40"
   viewBox="0 0 40 40"
   enable-background="new 0 0 100 100"
   xml:space="preserve"
   inkscape:version="0.48.1 "
   sodipodi:docname="noun_project_2174.svg"><metadata
   id="metadata13"><rdf:RDF><cc:Work
       rdf:about=""><dc:format>image/svg+xml</dc:format><dc:type
         rdf:resource="http://purl.org/dc/dcmitype/StillImage" /><dc:title></dc:title></cc:Work></rdf:RDF></metadata><defs
   id="defs11" /><sodipodi:namedview
   pagecolor="#ffffff"
   bordercolor="#666666"
   borderopacity="1"
   objecttolerance="10"
   gridtolerance="10"
   guidetolerance="10"
   inkscape:pageopacity="0"
   inkscape:pageshadow="2"
   inkscape:window-width="956"
   inkscape:window-height="731"
   id="namedview9"
   showgrid="false"
   inkscape:zoom="2.91"
   inkscape:cx="50"
   inkscape:cy="50"
   inkscape:window-x="0"
   inkscape:window-y="0"
   inkscape:window-maximized="0"
   inkscape:current-layer="Layer_1" />
<path
   d="m 39.621973,28.327708 -2.734969,-1.604949 c 0.09073,-1.101801 -0.04384,-2.177121 -0.364663,-3.1743 l 2.292599,-2.185371 -1.583678,-2.503148 -2.955069,1.13523 c -0.771868,-0.720209 -1.691773,-1.301933 -2.71196,-1.687867 -9.04e-4,0 -0.0013,-4.34e-4 -0.0017,-9.03e-4 l -0.279586,-3.158236 -2.944216,-0.322552 -0.95637,3.021488 c -1.08053,0.156719 -2.100283,0.525722 -3.011506,1.0636 -4.33e-4,4.35e-4 -9.03e-4,4.35e-4 -0.0013,9.03e-4 l -2.642055,-1.749514 -2.088127,2.101151 1.765575,2.630345 c -0.529195,0.906882 -0.889082,1.921859 -1.041025,3.019319 l -3.019753,0.975907 0.340786,2.941177 3.156067,0.260038 c 0,4.35e-4 0,9.04e-4 0,9.04e-4 0.39071,1.003691 0.972434,1.923595 1.710441,2.700673 l -1.11743,2.96462 2.512698,1.567614 2.174084,-2.309528 c 0.503581,0.160625 1.024094,0.269155 1.570653,0.329932 0.542218,0.06121 1.080096,0.06511 1.604949,0.02214 l 1.61971,2.721042 2.792707,-0.986325 -0.448883,-3.134796 c 0.884308,-0.599088 1.656177,-1.370523 2.254396,-2.268287 v -4.35e-4 l 3.136967,0.429782 0.970697,-2.799654 z m -11.291515,0.164098 -1.337096,-0.06077 -0.6425,-1.172131 -0.78142,-1.085305 0.512264,-1.232906 0.360322,-1.289777 1.285,-0.369004 1.232907,-0.520946 1.090081,0.777079 1.176471,0.633818 0.06902,1.337096 0.239201,1.315389 -1.003257,0.889951 -0.881267,1.007163 -1.31973,-0.229651 z"
   id="path3"
   inkscape:connector-curvature="0"
   style="fill:#000000" />
<path
   d="m 17.868551,9.1429857 -1.939657,0.69503 0.28131,1.9036253 2.057305,0.10419 c 0,0 0,4.34e-4 0,4.34e-4 0.273062,0.646408 0.672455,1.228131 1.163013,1.718255 l -0.665944,1.94834 1.663556,0.967224 1.365315,-1.54287 h 4.34e-4 c 0.330366,0.09594 0.673323,0.156284 1.024527,0.182331 0.35598,0.02649 0.698937,0.02214 1.041894,-0.0217 h 0.0017 l 1.108758,1.736054 1.793358,-0.6972 -0.354677,-2.024311 c 0.563924,-0.40764 1.045367,-0.924245 1.419145,-1.518992 4.33e-4,-4.34e-4 4.33e-4,-0.0013 9.04e-4,-0.0013 l 2.043413,0.214889 0.572605,-1.836769 -1.80942,-0.9880633 c 0,-4.33e-4 0,-0.0013 0,-0.0022 0.03473,-0.720643 -0.0738,-1.410897 -0.299544,-2.049057 -4.34e-4,-4.34e-4 -4.34e-4,-0.0013 -9.04e-4,-0.0022 L 29.780426,6.4635782 28.701198,4.8703502 26.803217,5.6687007 C 26.283573,5.2137515 25.680578,4.8534301 25.008556,4.6237797 L 24.763277,2.5812352 22.845326,2.4314631 22.284875,4.4140988 c -0.698937,0.1215543 -1.35533,0.3824613 -1.937053,0.7471235 -9.04e-4,4.346e-4 -0.0017,0.00132 -0.0026,0.00173 l -1.746908,-1.0800954 -1.313219,1.4065553 1.200348,1.6726723 0,4.342e-4 C 18.159417,7.7603049 17.94279,8.4275499 17.868555,9.1429839 z m 3.716519,-0.09681 0.204471,-0.846539 0.829173,-0.264814 0.790102,-0.3646625 0.720642,0.4818755 0.777079,0.390276 0.0738,0.863903 0.182332,0.8508793 -0.633819,0.599088 -0.551769,0.668549 -0.859128,-0.121555 -0.868244,-0.01259 -0.443239,-0.747124 -0.53093,-0.6902553 0.309528,-0.807032 z"
   id="path5"
   inkscape:connector-curvature="0"
   style="fill:#000000" />
<path
   d="m 18.16332,23.544551 0.739743,-2.383764 -2.345127,-1.276318 c 0,-9.04e-4 0,-0.0022 0,-0.0031 0.0408,-0.930323 -0.09985,-1.829824 -0.395485,-2.660734 l 1.870632,-1.902322 -1.401779,-2.064684 -2.460171,1.038419 c -0.672455,-0.589057 -1.45865,-1.054002 -2.329064,-1.352678 l -0.32125,-2.648144 -2.4883889,-0.19058 -0.7206425,2.566963 c -9.036e-4,4.35e-4 -0.00132,4.35e-4 -0.00173,4.35e-4 -0.9073157,0.162362 -1.7547218,0.501411 -2.5074892,0.98155 l -2.2722011,-1.400478 -1.7017584,1.825483 1.558064,2.16627 c -0.4171914,0.77621 -0.6972,1.641415 -0.7944434,2.571739 l -2.51486902,0.903841 0.36770143,2.468418 2.66464099,0.131974 c 4.343e-4,4.33e-4 4.343e-4,9.03e-4 8.709e-4,0.0017 0.3564142,0.83525 0.8721512,1.588452 1.5150863,2.221402 l 0,0 -0.8612986,2.531799 2.1597575,1.252008 1.7629693,-1.999565 c 0.4276105,0.117212 0.8725858,0.194052 1.3331888,0.232255 0.4610376,0.03343 0.9125252,0.02387 1.3544609,-0.02518 4.35e-4,0 0.0013,0 0.0022,0 l 1.437377,2.24441 2.32429,-0.908183 -0.46451,-2.628174 c 0.730628,-0.532668 1.354461,-1.196876 1.83677,-1.970481 0,0 0,-4.34e-4 4.34e-4,-4.34e-4 l 2.652052,0.276102 z m -8.7636229,-1.93792 -1.1252436,-0.0152 -0.5765144,-0.968959 -0.688083,-0.892556 0.3989575,-1.05101 0.2674192,-1.095289 1.073584,-0.344693 1.0232263,-0.473628 0.9381379,0.622966 1.004993,0.504016 0.09811,1.122205 0.236596,1.102236 -0.821358,0.777512 -0.715433,0.871284 -1.1143929,-0.15889 z"
   id="path7"
   inkscape:connector-curvature="0"
   style="fill:#000000" />
</svg>