<?xml version="1.0" encoding="UTF-8" standalone="no"?>
<!-- Generator: Adobe Illustrator 14.0.0, SVG Export Plug-In . SVG Version: 6.00 Build 43363)  -->

<svg
   xmlns:dc="http://purl.org/dc/elements/1.1/"
   xmlns:cc="http://creativecommons.org/ns#"
   xmlns:rdf="http://www.w3.org/1999/02/22-rdf-syntax-ns#"
   xmlns:svg="http://www.w3.org/2000/svg"
   xmlns="http://www.w3.org/2000/svg"
   xmlns:sodipodi="http://sodipodi.sourceforge.net/DTD/sodipodi-0.dtd"
   xmlns:inkscape="http://www.inkscape.org/namespaces/inkscape"
   version="1.0"
   id="Layer_1"
   x="0px"
   y="0px"
   width="40"
   height="40"
   viewBox="0 0 40 40"
   enable-background="new 0 0 100 85.416"
   xml:space="preserve"
   inkscape:version="0.48.1 "
   sodipodi:docname="noun_project_288.svg"><metadata
   id="metadata25"><rdf:RDF><cc:Work
       rdf:about=""><dc:format>image/svg+xml</dc:format><dc:type
         rdf:resource="http://purl.org/dc/dcmitype/StillImage" /><dc:title></dc:title></cc:Work></rdf:RDF></metadata><defs
   id="defs23" /><sodipodi:namedview
   pagecolor="#ffffff"
   bordercolor="#666666"
   borderopacity="1"
   objecttolerance="10"
   gridtolerance="10"
   guidetolerance="10"
   inkscape:pageopacity="0"
   inkscape:pageshadow="2"
   inkscape:window-width="982"
   inkscape:window-height="807"
   id="namedview21"
   showgrid="false"
   inkscape:zoom="3.4068558"
   inkscape:cx="23.209353"
   inkscape:cy="10.566928"
   inkscape:window-x="0"
   inkscape:window-y="0"
   inkscape:window-maximized="0"
   inkscape:current-layer="Layer_1" />
<g
   id="g3"
   transform="matrix(0.37772536,0,0,0.37772536,1.1741031,3.6274723)">
	<path
   d="M 60.082,20.987 H 39.918 c -3.231,0 -5.851,2.618 -5.851,5.85 v 27.44 c 0,3.231 2.62,5.852 5.851,5.852 h 0.033 v 19.436 c 0,3.231 2.546,5.852 5.689,5.852 h 8.722 c 3.14,0 5.688,-2.62 5.688,-5.852 V 60.129 h 0.032 c 3.231,0 5.851,-2.62 5.851,-5.852 v -27.44 c -0.001,-3.232 -2.62,-5.85 -5.851,-5.85 z"
   id="path5"
   inkscape:connector-curvature="0" />
	<circle
   cx="50"
   cy="9.5500002"
   r="9.5500002"
   id="circle7"
   sodipodi:cx="50"
   sodipodi:cy="9.5500002"
   sodipodi:rx="9.5500002"
   sodipodi:ry="9.5500002"
   d="M 59.55,9.5500002 C 59.55,14.82432 55.274319,19.1 50,19.1 44.725681,19.1 40.45,14.82432 40.45,9.5500002 40.45,4.2756807 44.725681,0 50,0 c 5.274319,0 9.55,4.2756807 9.55,9.5500002 z" />
</g>
<g
   id="g9"
   transform="matrix(0.37772536,0,0,0.37772536,1.1741031,3.6274723)">
	<path
   d="M 94.986,23.268 H 77.708 c -2.771,0 -5.014,2.245 -5.014,5.014 v 23.514 c 0,2.771 2.243,5.016 5.014,5.016 h 0.028 v 16.654 c 0,2.77 2.182,5.014 4.873,5.014 h 7.475 c 2.691,0 4.874,-2.244 4.874,-5.014 V 56.811 h 0.027 c 2.771,0 5.015,-2.245 5.015,-5.016 V 28.281 c 0,-2.768 -2.244,-5.013 -5.014,-5.013 z"
   id="path11"
   inkscape:connector-curvature="0" />
	<circle
   cx="86.347"
   cy="13.469"
   r="8.184"
   id="circle13"
   sodipodi:cx="86.347"
   sodipodi:cy="13.469"
   sodipodi:rx="8.184"
   sodipodi:ry="8.184"
   d="m 94.531,13.469 c 0,4.519898 -3.664101,8.184 -8.184,8.184 -4.519898,0 -8.184,-3.664102 -8.184,-8.184 0,-4.5198985 3.664102,-8.1840002 8.184,-8.1840002 4.519899,0 8.184,3.6641017 8.184,8.1840002 z" />
</g>
<g
   id="g15"
   transform="matrix(0.37772536,0,0,0.37772536,1.1741031,3.6274723)">
	<path
   d="M 22.292,23.268 H 5.014 C 2.245,23.268 0,25.513 0,28.281 v 23.514 c 0,2.771 2.245,5.016 5.014,5.016 h 0.028 v 16.654 c 0,2.77 2.184,5.014 4.874,5.014 h 7.474 c 2.692,0 4.874,-2.244 4.874,-5.014 V 56.811 h 0.028 c 2.769,0 5.014,-2.245 5.014,-5.016 V 28.281 C 27.305,25.513 25.06,23.268 22.292,23.268 z"
   id="path17"
   inkscape:connector-curvature="0" />
	<circle
   cx="13.653"
   cy="13.469"
   r="8.1829996"
   id="circle19"
   sodipodi:cx="13.653"
   sodipodi:cy="13.469"
   sodipodi:rx="8.1829996"
   sodipodi:ry="8.1829996"
   d="m 21.835999,13.469 c 0,4.519346 -3.663653,8.182999 -8.182999,8.182999 -4.519346,0 -8.1829997,-3.663653 -8.1829997,-8.182999 0,-4.519346 3.6636537,-8.1829997 8.1829997,-8.1829997 4.519346,0 8.182999,3.6636537 8.182999,8.1829997 z" />
</g>
</svg>