<?xml version="1.0" encoding="UTF-8" standalone="no"?>
<svg
   xmlns:dc="http://purl.org/dc/elements/1.1/"
   xmlns:cc="http://creativecommons.org/ns#"
   xmlns:rdf="http://www.w3.org/1999/02/22-rdf-syntax-ns#"
   xmlns:svg="http://www.w3.org/2000/svg"
   xmlns="http://www.w3.org/2000/svg"
   xmlns:sodipodi="http://sodipodi.sourceforge.net/DTD/sodipodi-0.dtd"
   xmlns:inkscape="http://www.inkscape.org/namespaces/inkscape"
   version="1.1"
   id="Layer_1"
   x="0px"
   y="0px"
   width="16"
   height="16"
   viewBox="0 0 16 16"
   enable-background="new 0 0 100 100"
   xml:space="preserve"
   inkscape:version="0.48.1 "
   sodipodi:docname="cake.svg"><metadata
   id="metadata15"><rdf:RDF><cc:Work
       rdf:about=""><dc:format>image/svg+xml</dc:format><dc:type
         rdf:resource="http://purl.org/dc/dcmitype/StillImage" /></cc:Work></rdf:RDF></metadata><defs
   id="defs13" /><sodipodi:namedview
   pagecolor="#ffffff"
   bordercolor="#666666"
   borderopacity="1"
   objecttolerance="10"
   gridtolerance="10"
   guidetolerance="10"
   inkscape:pageopacity="0"
   inkscape:pageshadow="2"
   inkscape:window-width="1069"
   inkscape:window-height="913"
   id="namedview11"
   showgrid="false"
   inkscape:zoom="18.563035"
   inkscape:cx="6.2906843"
   inkscape:cy="6.5003738"
   inkscape:window-x="0"
   inkscape:window-y="0"
   inkscape:window-maximized="0"
   inkscape:current-layer="g3" />
<g
   id="g3"
   transform="matrix(0.14221756,0,0,0.14221756,-2.5056227,-84.042889)">
	
	
	<g
   id="g2992"
   transform="matrix(1.141308,0,0,1.141308,18.526654,591.35711)"><path
     style="fill:#000000"
     inkscape:connector-curvature="0"
     id="path5"
     d="m 64.306,35.277 c -1.216,0.097 -2.411,0.212 -3.597,0.337 -0.002,6.025 -0.014,11.35 -0.047,13.411 l -0.016,0.832 -0.769,0.315 c -1.45,0.594 -3.295,0.683 -4.264,0.683 -0.969,0 -2.813,-0.089 -4.263,-0.684 l -0.778,-0.317 -0.007,-0.841 c -0.011,-1.748 -0.023,-6.46 -0.034,-11.997 -9.312,1.627 -17.466,4.061 -23.957,7.094 -1.978,0.925 -3.806,1.9 -5.458,2.932 v 36.722 l 59.692,14.56 V 61.054 L 64.306,35.277 z M 75.351,91.395 26.575,79.488 V 68.503 L 75.35,80.621 v 10.774 z m 0,-16.397 L 26.603,62.879 26.576,51.892 75.351,64.029 v 10.969 z" /><path
     style="fill:#000000"
     inkscape:connector-curvature="0"
     id="path7"
     d="m 59.447,35.753 c 0.002,-9.471 -0.026,-20.757 -0.048,-23.905 -0.21,-0.425 -0.59,-0.555 -1.018,-0.555 -0.662,0 -1.435,0.306 -1.874,0.306 -0.215,0 -0.35,-0.073 -0.353,-0.292 3.102,-2.42 1.44,-9.662 -1.082,-11.357 0.778,4.937 -3.644,8.567 -0.179,11.739 0.058,0.053 0.117,0.105 0.179,0.158 -0.062,-0.053 -0.121,-0.105 -0.179,-0.158 -0.362,-0.265 -0.903,-0.396 -1.442,-0.396 -0.639,0 -1.278,0.185 -1.623,0.555 -0.057,3.333 -0.057,15.32 -0.037,24.953 2.089,-0.345 4.231,-0.651 6.428,-0.912 0.406,-0.048 0.819,-0.09 1.228,-0.136 z" /><path
     style="fill:#000000"
     inkscape:connector-curvature="0"
     id="path9"
     d="m 55.614,49.593 c 1.413,0 2.828,-0.196 3.785,-0.588 0.035,-2.031 0.048,-7.282 0.048,-13.251 -0.409,0.045 -0.822,0.087 -1.228,0.136 -2.196,0.261 -4.339,0.567 -6.428,0.912 0.009,5.553 0.023,10.326 0.037,12.204 0.957,0.39 2.373,0.587 3.786,0.587 z" /></g>
</g>
</svg>